<svg xmlns="http://www.w3.org/2000/svg" width="100" height="100" viewBox="0 0 100 100" fill="none">
  <path d="M83.3333 0H16.6667C12.2464 0 8.00716 1.75595 4.88155 4.88155C1.75595 8.00716 0 12.2464 0 16.6667V83.3333C0 87.7536 1.75595 91.9928 4.88155 95.1184C8.00716 98.244 12.2464 100 16.6667 100H83.3333C87.7536 100 91.9928 98.244 95.1184 95.1184C98.244 91.9928 100 87.7536 100 83.3333V16.6667C100 12.2464 98.244 8.00716 95.1184 4.88155C91.9928 1.75595 87.7536 0 83.3333 0ZM27.7778 22.2222C29.426 22.2222 31.0371 22.711 32.4075 23.6266C33.7779 24.5423 34.846 25.8438 35.4768 27.3665C36.1075 28.8892 36.2725 30.5648 35.951 32.1813C35.6294 33.7978 34.8358 35.2827 33.6703 36.4481C32.5049 37.6135 31.02 38.4072 29.4035 38.7288C27.787 39.0503 26.1115 38.8853 24.5887 38.2546C23.066 37.6238 21.7645 36.5557 20.8489 35.1853C19.9332 33.8149 19.4444 32.2037 19.4444 30.5556C19.4444 28.3454 20.3224 26.2258 21.8852 24.663C23.448 23.1002 25.5676 22.2222 27.7778 22.2222ZM88.8889 82.3889C89.0116 83.987 88.4958 85.5686 87.4544 86.787C86.413 88.0054 84.9311 88.7612 83.3333 88.8889H16.6667L58.7222 51C59.4284 50.3559 60.3497 49.9988 61.3056 49.9988C62.2614 49.9988 63.1827 50.3559 63.8889 51L88.8889 75.8889V82.3889Z" fill="#B0B8BE"/>
</svg>