<svg xmlns="http://www.w3.org/2000/svg" width="100" height="100" viewBox="0 0 100 100" fill="none">
  <path d="M22.5 80V79.55C22.5 75.225 22.5 71.255 22.935 68.03C23.41 64.475 24.535 60.715 27.625 57.63C30.715 54.535 34.475 53.41 38.025 52.93C41.255 52.5 45.225 52.5 49.555 52.5H50.445C54.775 52.5 58.745 52.5 61.97 52.935C65.525 53.41 69.285 54.535 72.37 57.625C75.465 60.715 76.59 64.475 77.07 68.025C77.495 71.21 77.5 75.105 77.5 79.36C90.365 76.61 100 65.3 100 51.76C100 39.41 91.965 28.9 80.775 25.075C79.185 10.97 67.075 0 52.38 0C36.6 0 23.81 12.64 23.81 28.235C23.81 31.685 24.435 34.985 25.58 38.045C24.2125 37.7806 22.8229 37.6467 21.43 37.645C9.595 37.65 0 47.13 0 58.825C0 70.52 9.595 80 21.43 80H22.5Z" fill="#B0B8BE"/>
  <path fill-rule="evenodd" clip-rule="evenodd" d="M50 60C40.57 60 35.86 60 32.93 62.93C30 65.86 30 70.57 30 80C30 89.43 30 94.14 32.93 97.07C35.86 100 40.57 100 50 100C59.43 100 64.14 100 67.07 97.07C70 94.14 70 89.43 70 80C70 70.57 70 65.86 67.07 62.93C64.14 60 59.43 60 50 60ZM59.025 75.42L52.355 68.755C51.7298 68.1315 50.8829 67.7814 50 67.7814C49.1171 67.7814 48.2702 68.1315 47.645 68.755L40.975 75.42C40.6529 75.7268 40.3954 76.0949 40.2177 76.5026C40.04 76.9104 39.9457 77.3496 39.9402 77.7943C39.9348 78.2391 40.0184 78.6805 40.1861 79.0924C40.3538 79.5044 40.6023 79.8787 40.9168 80.1932C41.2313 80.5077 41.6056 80.7562 42.0176 80.9239C42.4295 81.0916 42.8709 81.1752 43.3157 81.1697C43.7604 81.1643 44.1996 81.07 44.6074 80.8923C45.0151 80.7146 45.3832 80.4571 45.69 80.135L46.665 79.16V88.89C46.665 89.7745 47.0164 90.6228 47.6418 91.2482C48.2672 91.8736 49.1155 92.225 50 92.225C50.8845 92.225 51.7328 91.8736 52.3582 91.2482C52.9836 90.6228 53.335 89.7745 53.335 88.89V79.16L54.31 80.135C54.9403 80.7353 55.7803 81.0654 56.6507 81.0548C57.521 81.0441 58.3527 80.6937 58.9682 80.0782C59.5837 79.4627 59.9341 78.631 59.9448 77.7607C59.9554 76.8903 59.6253 76.0503 59.025 75.42Z" fill="#B0B8BE"/>
</svg>