<svg width="24" height="24" viewBox="0 0 24 24" fill="none" xmlns="http://www.w3.org/2000/svg">
<path d="M22.2293 9.08847e-05H1.77048C1.30628 -0.0046333 0.859168 0.174984 0.527246 0.499529C0.195325 0.824074 0.00570709 1.26704 0 1.73123V22.2727C0.0067392 22.7362 0.196811 23.1782 0.52862 23.5019C0.860429 23.8256 1.30695 24.0046 1.77048 23.9999H22.2293C22.6936 24.0036 23.1404 23.8234 23.4721 23.4986C23.8039 23.1739 23.9936 22.731 23.9998 22.2668V1.72532C23.9915 1.2625 23.8009 0.821646 23.4694 0.49859C23.1379 0.175535 22.6922 -0.00361171 22.2293 9.08847e-05Z" fill="#0076B2"/>
<path d="M3.55281 8.99589H7.1154V20.4588H3.55281V8.99589ZM5.33509 3.29102C5.7437 3.29102 6.14313 3.41221 6.48286 3.63926C6.82258 3.86632 7.08732 4.18903 7.2436 4.56657C7.39988 4.94412 7.44067 5.35953 7.36081 5.76027C7.28095 6.161 7.08403 6.52904 6.79496 6.81784C6.50589 7.10663 6.13766 7.3032 5.73685 7.38268C5.33604 7.46216 4.92067 7.42097 4.54327 7.26433C4.16587 7.1077 3.84341 6.84264 3.61668 6.5027C3.38996 6.16277 3.26914 5.76322 3.26953 5.35461C3.27005 4.80713 3.4879 4.28225 3.87521 3.89531C4.26253 3.50837 4.78761 3.29102 5.33509 3.29102ZM9.35014 8.99589H12.7652V10.5696H12.8124C13.2885 9.66867 14.4491 8.71851 16.1822 8.71851C19.7901 8.71065 20.4589 11.0851 20.4589 14.1637V20.4588H16.8963V14.8817C16.8963 13.5539 16.8727 11.8444 15.0452 11.8444C13.2177 11.8444 12.9068 13.2922 12.9068 14.7952V20.4588H9.35014V8.99589Z" fill="white"/>
</svg>
