<svg width="45" height="45" viewBox="0 0 45 45" fill="none" xmlns="http://www.w3.org/2000/svg">
<g id="ri:paypal-fill">
<rect width="45" height="45" rx="22.5" fill="white"/>
<path id="Vector" d="M30.4475 18.7689C30.9236 19.6205 30.9865 20.7179 30.7378 21.9886C30.0217 25.6717 27.5685 26.9433 24.435 26.9433H23.9511C23.7657 26.9436 23.5865 27.01 23.4456 27.1306C23.3048 27.2513 23.2116 27.4182 23.1828 27.6014L23.1431 27.8143L22.5334 31.6784L22.5025 31.8429C22.4736 32.026 22.3804 32.1928 22.2395 32.3133C22.0987 32.4337 21.9194 32.4999 21.7341 32.5H18.499C18.4315 32.5 18.3648 32.4853 18.3035 32.4571C18.2421 32.4288 18.1877 32.3876 18.1438 32.3363C18.1 32.285 18.0677 32.2248 18.0494 32.1598C18.031 32.0949 18.0269 32.0267 18.0374 31.96L18.2067 30.8868H19.6767L20.5951 25.0611H21.9363C26.4634 25.0611 29.4353 22.9292 30.4475 18.7689ZM27.583 13.8432C28.3204 14.6832 28.5353 15.5948 28.3117 17.0222C28.2924 17.1412 28.273 17.2544 28.2508 17.3706C27.5395 21.0218 25.2624 22.6408 21.5202 22.6408H19.6961C19.0864 22.6408 18.5609 23.0414 18.3867 23.6105L18.3722 23.6085L17.4722 29.3123H14.0503C14.043 29.3126 14.0357 29.3112 14.029 29.3083C14.0222 29.3053 14.0163 29.3009 14.0115 29.2953C14.0068 29.2897 14.0033 29.2831 14.0015 29.276C13.9997 29.2689 13.9995 29.2614 14.001 29.2542L16.5151 13.2771C16.549 13.0606 16.6591 12.8634 16.8255 12.721C16.992 12.5785 17.2038 12.5001 17.4229 12.5H23.205C25.3176 12.5 26.8021 12.9539 27.583 13.8432Z" fill="#085394"/>
</g>
</svg>
