<svg width="45" height="45" viewBox="0 0 45 45" fill="none" xmlns="http://www.w3.org/2000/svg">
<g id="material-symbols:sell">
<rect width="45" height="45" rx="22.5" fill="white"/>
<path id="Vector" d="M32.4 24.75L25.25 31.9C25.05 32.1 24.825 32.25 24.575 32.35C24.325 32.45 24.075 32.5 23.825 32.5C23.575 32.5 23.325 32.45 23.075 32.35C22.825 32.25 22.6 32.1 22.4 31.9L13.575 23.075C13.3917 22.8917 13.25 22.6793 13.15 22.438C13.05 22.1967 13 21.9423 13 21.675V14.5C13 13.95 13.196 13.4793 13.588 13.088C13.98 12.6967 14.4507 12.5007 15 12.5H22.175C22.4417 12.5 22.7 12.5543 22.95 12.663C23.2 12.7717 23.4167 12.9173 23.6 13.1L32.4 21.925C32.6 22.125 32.746 22.35 32.838 22.6C32.93 22.85 32.9757 23.1 32.975 23.35C32.9743 23.6 32.9287 23.846 32.838 24.088C32.7473 24.33 32.6013 24.5507 32.4 24.75ZM17.5 18.5C17.9167 18.5 18.271 18.3543 18.563 18.063C18.855 17.7717 19.0007 17.4173 19 17C18.9993 16.5827 18.8537 16.2287 18.563 15.938C18.2723 15.6473 17.918 15.5013 17.5 15.5C17.082 15.4987 16.728 15.6447 16.438 15.938C16.148 16.2313 16.002 16.5853 16 17C15.998 17.4147 16.144 17.769 16.438 18.063C16.732 18.357 17.086 18.5027 17.5 18.5Z" fill="#085394"/>
</g>
</svg>
