<svg width="45" height="45" viewBox="0 0 45 45" fill="none" xmlns="http://www.w3.org/2000/svg">
<g id="carbon:product">
<rect width="45" height="45" rx="22.5" fill="white"/>
<g id="Group 1">
<path id="Vector" d="M15.3334 24.1666H20.3334V25.8333H15.3334V24.1666ZM15.3334 27.5H23.6667V29.1666H15.3334V27.5Z" fill="#085394"/>
<path id="Vector_2" d="M30.3333 12.5H13.6667C13.2248 12.5007 12.8013 12.6765 12.4889 12.9889C12.1765 13.3013 12.0007 13.7248 12 14.1667V30.8333C12.0007 31.2752 12.1765 31.6987 12.4889 32.0111C12.8013 32.3235 13.2248 32.4993 13.6667 32.5H30.3333C30.7752 32.4993 31.1987 32.3235 31.5111 32.0111C31.8235 31.6987 31.9993 31.2752 32 30.8333V14.1667C31.9993 13.7248 31.8235 13.3013 31.5111 12.9889C31.1987 12.6765 30.7752 12.5007 30.3333 12.5ZM23.6667 14.1667V17.5H20.3333V14.1667H23.6667ZM13.6667 30.8333V14.1667H18.6667V19.1667H25.3333V14.1667H30.3333L30.3342 30.8333H13.6667Z" fill="#085394"/>
</g>
</g>
</svg>
