<svg width="45" height="45" viewBox="0 0 45 45" fill="none" xmlns="http://www.w3.org/2000/svg">
<g id="mdi:account-check">
<rect width="45" height="45" rx="22.5" fill="white"/>
<path id="Vector" d="M33.9394 22.803L35.6364 24.5121L27.7212 32.5L23.5152 28.2576L25.2121 26.5485L27.7212 29.0697L33.9394 22.803ZM20.4848 28.2576L24.1212 31.8939H12V29.4697C12 26.7909 16.3394 24.6212 21.697 24.6212L23.9879 24.7545L20.4848 28.2576ZM21.697 12.5C22.9829 12.5 24.2161 13.0108 25.1254 13.9201C26.0346 14.8294 26.5455 16.0626 26.5455 17.3485C26.5455 18.6344 26.0346 19.8676 25.1254 20.7769C24.2161 21.6861 22.9829 22.197 21.697 22.197C20.4111 22.197 19.1778 21.6861 18.2686 20.7769C17.3593 19.8676 16.8485 18.6344 16.8485 17.3485C16.8485 16.0626 17.3593 14.8294 18.2686 13.9201C19.1778 13.0108 20.4111 12.5 21.697 12.5Z" fill="#085394"/>
</g>
</svg>
