<svg xmlns="http://www.w3.org/2000/svg" width="24" height="24" viewBox="0 0 24 24" fill="none">
  <g clip-path="url(#clip0_48_172)">
    <path d="M18 2.475C16.2375 1.3875 14.2125 0.75 12 0.75V2.475H18Z" fill="#ED4C5C"/>
    <path d="M12 4.2001H20.1C19.4625 3.5626 18.75 2.9626 18 2.4751H12V4.2001Z" fill="white"/>
    <path d="M12 5.9252H21.4875C21.075 5.2877 20.625 4.7252 20.1375 4.2002H12V5.9252Z" fill="#ED4C5C"/>
    <path d="M12 7.6498H22.3875C22.125 7.0498 21.825 6.4498 21.4875 5.9248H12V7.6498Z" fill="white"/>
    <path d="M12 9.3749H22.95C22.8 8.7749 22.6125 8.2124 22.3875 7.6499H12V9.3749Z" fill="#ED4C5C"/>
    <path d="M12 11.1376H23.2125C23.175 10.5376 23.0625 9.9751 22.95 9.4126H12V11.1376Z" fill="white"/>
    <path d="M23.2125 11.1377H12V12.0002H0.75C0.75 12.3002 0.75 12.5627 0.7875 12.8627H23.2125C23.25 12.5627 23.25 12.3002 23.25 12.0002C23.25 11.7002 23.25 11.4002 23.2125 11.1377Z" fill="#ED4C5C"/>
    <path d="M1.0501 14.5873H22.9501C23.1001 14.0248 23.1751 13.4623 23.2126 12.8623H0.787598C0.825098 13.4248 0.900098 14.0248 1.0501 14.5873Z" fill="white"/>
    <path d="M1.61255 16.3124H22.3875C22.6125 15.7499 22.8 15.1874 22.95 14.5874H1.05005C1.20005 15.1874 1.38755 15.7499 1.61255 16.3124Z" fill="#ED4C5C"/>
    <path d="M2.51255 18.0375H21.4875C21.825 17.475 22.125 16.9125 22.3875 16.3125H1.61255C1.87505 16.9125 2.17505 17.475 2.51255 18.0375Z" fill="white"/>
    <path d="M3.86245 19.7626H20.1375C20.625 19.2376 21.1125 18.6376 21.4875 18.0376H2.51245C2.88745 18.6751 3.37495 19.2376 3.86245 19.7626Z" fill="#ED4C5C"/>
    <path d="M5.96255 21.4877H18.0375C18.825 21.0002 19.5 20.4002 20.1375 19.7627H3.86255C4.50005 20.4377 5.21255 21.0002 5.96255 21.4877Z" fill="white"/>
    <path d="M11.9999 23.2498C14.2124 23.2498 16.2749 22.6123 18.0374 21.4873H5.9624C7.7249 22.6123 9.7874 23.2498 11.9999 23.2498Z" fill="#ED4C5C"/>
    <path d="M6 2.475C5.2125 2.9625 4.5 3.5625 3.8625 4.2C3.3375 4.725 2.8875 5.325 2.5125 5.925C2.175 6.4875 1.8375 7.05 1.6125 7.65C1.3875 8.2125 1.2 8.775 1.05 9.375C0.9 9.9375 0.825 10.5 0.7875 11.1C0.75 11.4 0.75 11.7 0.75 12H12V0.75C9.7875 0.75 7.7625 1.3875 6 2.475Z" fill="#428BC1"/>
    <path d="M9.3749 1.125L9.5624 1.6875H10.1249L9.6749 2.0625L9.8249 2.625L9.3749 2.2875L8.9249 2.625L9.0749 2.0625L8.6249 1.6875H9.1874L9.3749 1.125ZM10.8749 3.375L11.0624 3.9375H11.6249L11.1749 4.3125L11.3249 4.875L10.8749 4.5375L10.4249 4.875L10.5749 4.3125L10.1249 3.9375H10.6874L10.8749 3.375ZM7.8749 3.375L8.0624 3.9375H8.6249L8.1749 4.3125L8.3249 4.875L7.8749 4.5375L7.4249 4.875L7.5749 4.3125L7.1249 3.9375H7.6874L7.8749 3.375ZM9.3749 5.625L9.5624 6.1875H10.1249L9.6749 6.5625L9.8249 7.125L9.3749 6.7875L8.9249 7.125L9.0749 6.5625L8.6249 6.1875H9.1874L9.3749 5.625ZM6.3749 5.625L6.5624 6.1875H7.1249L6.6749 6.5625L6.8249 7.125L6.3749 6.7875L5.9249 7.125L6.0749 6.5625L5.6249 6.1875H6.1874L6.3749 5.625ZM3.3749 5.625L3.5624 6.1875H4.1249L3.6749 6.5625L3.8249 7.125L3.3749 6.7875L2.9249 7.125L3.0749 6.5625L2.6249 6.1875H3.1874L3.3749 5.625ZM10.8749 7.875L11.0624 8.4375H11.6249L11.1749 8.8125L11.3249 9.375L10.8749 9.0375L10.4249 9.375L10.5749 8.8125L10.1249 8.4375H10.6874L10.8749 7.875ZM7.8749 7.875L8.0624 8.4375H8.6249L8.1749 8.8125L8.3249 9.375L7.8749 9.0375L7.4249 9.375L7.5749 8.8125L7.1249 8.4375H7.6874L7.8749 7.875ZM4.8749 7.875L5.0624 8.4375H5.6249L5.1749 8.8125L5.3249 9.375L4.8749 9.0375L4.4249 9.375L4.5749 8.8125L4.1249 8.4375H4.6874L4.8749 7.875ZM9.3749 10.125L9.5624 10.6875H10.1249L9.6749 11.0625L9.8249 11.625L9.3749 11.2875L8.9249 11.625L9.0749 11.0625L8.6249 10.6875H9.1874L9.3749 10.125ZM6.3749 10.125L6.5624 10.6875H7.1249L6.6749 11.0625L6.8249 11.625L6.3749 11.2875L5.9249 11.625L6.0749 11.0625L5.6249 10.6875H6.1874L6.3749 10.125ZM3.3749 10.125L3.5624 10.6875H4.1249L3.6749 11.0625L3.8249 11.625L3.3749 11.2875L2.9249 11.625L3.0749 11.0625L2.6249 10.6875H3.1874L3.3749 10.125ZM4.4249 4.875L4.8749 4.5375L5.3249 4.875L5.1374 4.3125L5.5874 3.9375H5.0249L4.8749 3.375L4.6874 3.9375H4.1624L4.6124 4.275L4.4249 4.875ZM1.4249 9.375L1.8749 9.0375L2.3249 9.375L2.1374 8.8125L2.5874 8.4375H2.0624L1.8749 7.875L1.6874 8.4375H1.3124C1.3124 8.475 1.2749 8.5125 1.2749 8.55L1.5749 8.775L1.4249 9.375Z" fill="white"/>
  </g>
  <defs>
    <clipPath id="clip0_48_172">
      <rect width="24" height="24" fill="white"/>
    </clipPath>
  </defs>
</svg>