<svg width="40" height="21" viewBox="0 0 40 21" fill="none" xmlns="http://www.w3.org/2000/svg">
<g clip-path="url(#clip0_106_1127)">
<rect width="20" height="20" transform="translate(0 0.580078)" fill="white"/>
<path d="M8.72577 13.8403L5.87598 10.9905L6.47678 10.3897L8.72577 12.6387L13.5242 7.84033L14.125 8.44114L8.72577 13.8403Z" fill="#D8184B"/>
<rect width="20" height="20" transform="translate(20 0.580078)" fill="#D8184B"/>
<path d="M30 11.692L27.019 14.673C26.9075 14.7846 26.7655 14.8403 26.5932 14.8403C26.4208 14.8403 26.2788 14.7846 26.1673 14.673C26.0558 14.5615 26 14.4195 26 14.2472C26 14.0748 26.0558 13.9329 26.1673 13.8213L29.1483 10.8403L26.1673 7.85934C26.0558 7.74781 26 7.60586 26 7.43349C26 7.26112 26.0558 7.11917 26.1673 7.00763C26.2788 6.8961 26.4208 6.84033 26.5932 6.84033C26.7655 6.84033 26.9075 6.8961 27.019 7.00763L30 9.98862L32.981 7.00763C33.0925 6.8961 33.2345 6.84033 33.4068 6.84033C33.5792 6.84033 33.7212 6.8961 33.8327 7.00763C33.9442 7.11917 34 7.26112 34 7.43349C34 7.60586 33.9442 7.74781 33.8327 7.85934L30.8517 10.8403L33.8327 13.8213C33.9442 13.9329 34 14.0748 34 14.2472C34 14.4195 33.9442 14.5615 33.8327 14.673C33.7212 14.7846 33.5792 14.8403 33.4068 14.8403C33.2345 14.8403 33.0925 14.7846 32.981 14.673L30 11.692Z" fill="white"/>
</g>
<rect x="0.8" y="1.38008" width="38.4" height="18.4" rx="9.2" stroke="#D8184B" stroke-width="1.6"/>
<defs>
<clipPath id="clip0_106_1127">
<rect y="0.580078" width="40" height="20" rx="10" fill="white"/>
</clipPath>
</defs>
</svg>
