<svg width="24" height="24" viewBox="0 0 24 24" fill="none" xmlns="http://www.w3.org/2000/svg">
<path d="M4.125 9.75C3.78028 9.75 3.43894 9.8179 3.12046 9.94982C2.80198 10.0817 2.5126 10.2751 2.26884 10.5188C2.02509 10.7626 1.83173 11.052 1.69982 11.3705C1.5679 11.6889 1.5 12.0303 1.5 12.375C1.5 12.7197 1.5679 13.0611 1.69982 13.3795C1.83173 13.698 2.02509 13.9874 2.26884 14.2312C2.5126 14.4749 2.80198 14.6683 3.12046 14.8002C3.43894 14.9321 3.78028 15 4.125 15C4.82119 15 5.48887 14.7234 5.98116 14.2312C6.47344 13.7389 6.75 13.0712 6.75 12.375C6.75 11.6788 6.47344 11.0111 5.98116 10.5188C5.48887 10.0266 4.82119 9.75 4.125 9.75ZM4.125 11.25C4.42337 11.25 4.70952 11.3685 4.9205 11.5795C5.13147 11.7905 5.25 12.0766 5.25 12.375C5.25 12.6734 5.13147 12.9595 4.9205 13.1705C4.70952 13.3815 4.42337 13.5 4.125 13.5C3.82663 13.5 3.54048 13.3815 3.3295 13.1705C3.11853 12.9595 3 12.6734 3 12.375C3 12.0766 3.11853 11.7905 3.3295 11.5795C3.54048 11.3685 3.82663 11.25 4.125 11.25ZM12 9.75C12.3447 9.75 12.6861 9.8179 13.0045 9.94982C13.323 10.0817 13.6124 10.2751 13.8562 10.5188C14.0999 10.7626 14.2933 11.052 14.4252 11.3705C14.5571 11.6889 14.625 12.0303 14.625 12.375C14.625 12.7197 14.5571 13.0611 14.4252 13.3795C14.2933 13.698 14.0999 13.9874 13.8562 14.2312C13.6124 14.4749 13.323 14.6683 13.0045 14.8002C12.6861 14.9321 12.3447 15 12 15C11.3038 15 10.6361 14.7234 10.1438 14.2312C9.65156 13.7389 9.375 13.0712 9.375 12.375C9.375 11.6788 9.65156 11.0111 10.1438 10.5188C10.6361 10.0266 11.3038 9.75 12 9.75ZM12 11.25C11.7016 11.25 11.4155 11.3685 11.2045 11.5795C10.9935 11.7905 10.875 12.0766 10.875 12.375C10.875 12.6734 10.9935 12.9595 11.2045 13.1705C11.4155 13.3815 11.7016 13.5 12 13.5C12.2984 13.5 12.5845 13.3815 12.7955 13.1705C13.0065 12.9595 13.125 12.6734 13.125 12.375C13.125 12.0766 13.0065 11.7905 12.7955 11.5795C12.5845 11.3685 12.2984 11.25 12 11.25ZM19.875 9.75C20.2197 9.75 20.5611 9.8179 20.8795 9.94982C21.198 10.0817 21.4874 10.2751 21.7312 10.5188C21.9749 10.7626 22.1683 11.052 22.3002 11.3705C22.4321 11.6889 22.5 12.0303 22.5 12.375C22.5 12.7197 22.4321 13.0611 22.3002 13.3795C22.1683 13.698 21.9749 13.9874 21.7312 14.2312C21.4874 14.4749 21.198 14.6683 20.8795 14.8002C20.5611 14.9321 20.2197 15 19.875 15C19.1788 15 18.5111 14.7234 18.0188 14.2312C17.5266 13.7389 17.25 13.0712 17.25 12.375C17.25 11.6788 17.5266 11.0111 18.0188 10.5188C18.5111 10.0266 19.1788 9.75 19.875 9.75ZM19.875 11.25C19.5766 11.25 19.2905 11.3685 19.0795 11.5795C18.8685 11.7905 18.75 12.0766 18.75 12.375C18.75 12.6734 18.8685 12.9595 19.0795 13.1705C19.2905 13.3815 19.5766 13.5 19.875 13.5C20.1734 13.5 20.4595 13.3815 20.6705 13.1705C20.8815 12.9595 21 12.6734 21 12.375C21 12.0766 20.8815 11.7905 20.6705 11.5795C20.4595 11.3685 20.1734 11.25 19.875 11.25Z" fill="black"/>
</svg>
