<svg width="20" height="21" viewBox="0 0 20 21" fill="none" xmlns="http://www.w3.org/2000/svg">
<path d="M10.0003 18.9135C8.86144 18.9135 7.78505 18.6946 6.77116 18.2568C5.75727 17.819 4.87199 17.2218 4.11533 16.4652C3.35866 15.7085 2.76144 14.8232 2.32366 13.8093C1.88588 12.7954 1.66699 11.719 1.66699 10.5802C1.66699 9.42738 1.88588 8.34766 2.32366 7.34099C2.76144 6.33433 3.35866 5.45238 4.11533 4.69516C4.87199 3.93794 5.75727 3.34072 6.77116 2.90349C7.78505 2.46627 8.86144 2.24738 10.0003 2.24683C11.1531 2.24683 12.2331 2.46572 13.2403 2.90349C14.2475 3.34127 15.1292 3.93849 15.8853 4.69516C16.6414 5.45183 17.2387 6.33377 17.677 7.34099C18.1153 8.34821 18.3342 9.42794 18.3337 10.5802C18.3337 11.719 18.1148 12.7954 17.677 13.8093C17.2392 14.8232 16.642 15.7088 15.8853 16.466C15.1287 17.2232 14.2467 17.8204 13.2395 18.2577C12.2323 18.6949 11.1525 18.9135 10.0003 18.9135ZM10.0003 17.2052C10.3614 16.7052 10.6739 16.1843 10.9378 15.6427C11.2017 15.101 11.417 14.5246 11.5837 13.9135H8.41699C8.58366 14.5246 8.79894 15.101 9.06283 15.6427C9.32671 16.1843 9.63921 16.7052 10.0003 17.2052ZM7.83366 16.8718C7.58366 16.4135 7.36505 15.9377 7.17783 15.4443C6.9906 14.951 6.83421 14.4407 6.70866 13.9135H4.25033C4.6531 14.6079 5.15671 15.2121 5.76116 15.726C6.3656 16.2399 7.05644 16.6218 7.83366 16.8718ZM12.167 16.8718C12.9448 16.6218 13.6359 16.2399 14.2403 15.726C14.8448 15.2121 15.3481 14.6079 15.7503 13.9135H13.292C13.167 14.4413 13.0109 14.9518 12.8237 15.4452C12.6364 15.9385 12.4175 16.414 12.167 16.8718ZM3.54199 12.2468H6.37533C6.33366 11.969 6.30255 11.6949 6.28199 11.4243C6.26144 11.1538 6.25088 10.8724 6.25033 10.5802C6.24977 10.2879 6.26033 10.0068 6.28199 9.73683C6.30366 9.46683 6.33477 9.19238 6.37533 8.91349H3.54199C3.47255 9.19127 3.4206 9.46571 3.38616 9.73683C3.35171 10.0079 3.33421 10.289 3.33366 10.5802C3.3331 10.8713 3.3506 11.1527 3.38616 11.4243C3.42171 11.696 3.47366 11.9702 3.54199 12.2468ZM8.04199 12.2468H11.9587C12.0003 11.969 12.0317 11.6949 12.0528 11.4243C12.0739 11.1538 12.0842 10.8724 12.0837 10.5802C12.0831 10.2879 12.0725 10.0068 12.052 9.73683C12.0314 9.46683 12.0003 9.19238 11.9587 8.91349H8.04199C8.00033 9.19127 7.96921 9.46571 7.94866 9.73683C7.9281 10.0079 7.91755 10.289 7.91699 10.5802C7.91644 10.8713 7.92699 11.1527 7.94866 11.4243C7.97033 11.696 8.00144 11.9702 8.04199 12.2468ZM13.6253 12.2468H16.4587C16.5281 11.969 16.5803 11.6949 16.6153 11.4243C16.6503 11.1538 16.6675 10.8724 16.667 10.5802C16.6664 10.2879 16.6492 10.0068 16.6153 9.73683C16.5814 9.46683 16.5292 9.19238 16.4587 8.91349H13.6253C13.667 9.19127 13.6984 9.46571 13.7195 9.73683C13.7406 10.0079 13.7509 10.289 13.7503 10.5802C13.7498 10.8713 13.7392 11.1527 13.7187 11.4243C13.6981 11.696 13.667 11.9702 13.6253 12.2468ZM13.292 7.24683H15.7503C15.3475 6.55238 14.8442 5.94821 14.2403 5.43433C13.6364 4.92044 12.9453 4.53849 12.167 4.28849C12.417 4.74683 12.6359 5.22266 12.8237 5.71599C13.0114 6.20933 13.1675 6.7196 13.292 7.24683ZM8.41699 7.24683H11.5837C11.417 6.63572 11.2017 6.05933 10.9378 5.51766C10.6739 4.97599 10.3614 4.45516 10.0003 3.95516C9.63921 4.45516 9.32671 4.97599 9.06283 5.51766C8.79894 6.05933 8.58366 6.63572 8.41699 7.24683ZM4.25033 7.24683H6.70866C6.83366 6.71905 6.99005 6.20849 7.17783 5.71516C7.3656 5.22183 7.58421 4.74627 7.83366 4.28849C7.05588 4.53849 6.36477 4.92044 5.76033 5.43433C5.15588 5.94821 4.65255 6.55238 4.25033 7.24683Z" fill="#373737"/>
</svg>
