<svg width="24" height="24" viewBox="0 0 24 24" fill="none" xmlns="http://www.w3.org/2000/svg">
<path d="M11.772 2.01321C10.4723 1.99943 9.1831 2.24701 7.98095 2.74124C6.77879 3.23547 5.68823 3.96626 4.77403 4.8902C3.86309 5.81307 3.14813 6.91058 2.67211 8.11678C2.19609 9.32297 1.96885 10.613 2.00403 11.9092C2.0076 13.2231 2.28718 14.5217 2.82466 15.7206C3.36213 16.9196 4.14551 17.9923 5.12403 18.8692C5.21719 18.9496 5.29154 19.0495 5.34182 19.1618C5.39211 19.2742 5.4171 19.3962 5.41503 19.5192V20.9692C5.41503 21.4562 5.62503 22.0012 6.24203 22.0012C6.37619 21.9956 6.50739 21.9601 6.62603 21.8972L8.48903 21.0732C8.69872 20.9917 8.93134 20.9917 9.14103 21.0732C14.345 22.4882 20.19 19.7632 21.61 14.4032C22.0459 12.9183 22.1182 11.3504 21.8209 9.83177C21.5237 8.31308 20.8655 6.88817 19.902 5.67721C18.9384 4.46292 17.6977 3.49728 16.284 2.86121C14.8689 2.22377 13.322 1.93239 11.772 2.01321ZM16.266 11.2012C13.716 15.6912 13.705 14.6812 10.503 12.5472C10.13 12.5472 9.94403 12.8252 8.69803 13.7072C7.45203 14.5892 7.24303 14.9602 6.87003 14.5652C6.49803 14.1712 7.65003 12.8602 9.19903 10.3312C10.549 8.10421 12.412 11.1902 13.599 11.3752C14.353 10.9543 15.0563 10.4483 15.695 9.8672C16.511 9.2412 16.743 8.99721 17.069 9.25321C17.395 9.50821 17.116 9.86721 16.266 11.2012Z" fill="black"/>
</svg>
