<svg width="20" height="19" viewBox="0 0 20 19" fill="none" xmlns="http://www.w3.org/2000/svg">
<path d="M5.08771 11.3256L3.68487 9.92039L2.28125 11.3256M14.9123 7.70056L16.3151 9.10656L17.7188 7.70056" stroke="#393939" stroke-linecap="round" stroke-linejoin="round"/>
<path d="M16.3148 9.10655C16.3148 7.42821 15.6498 5.82034 14.4655 4.63363C13.8795 4.04642 13.1834 3.58054 12.4171 3.26267C11.6508 2.94479 10.8293 2.78116 9.9997 2.78113C9.19384 2.78049 8.39545 2.9356 7.64845 3.23792C6.81455 3.57227 6.06156 4.08063 5.43973 4.72909C4.81789 5.37754 4.34152 6.15117 4.0424 6.99834M3.68457 9.91959C3.68579 11.3878 4.19706 12.8099 5.13095 13.9428C6.06382 15.0744 7.36171 15.8456 8.80155 16.124C10.2414 16.4025 11.7332 16.1706 13.0207 15.4684C14.3081 14.7647 15.3112 13.6359 15.8588 12.2748" stroke="#393939" stroke-linecap="round" stroke-linejoin="round"/>
<path d="M8.08398 11.0659C8.12519 11.5359 8.34877 11.971 8.70685 12.2782C9.06493 12.5854 9.52904 12.7402 9.99982 12.7094C11.5452 12.7094 11.9157 11.8203 11.9157 11.0659C11.9157 10.3114 11.2768 9.51184 9.99982 9.51184C8.72286 9.51184 8.08398 9.00675 8.08398 7.97759C8.10171 7.62096 8.22764 7.27819 8.44501 6.99492C8.66239 6.71164 8.96089 6.50129 9.30078 6.39188C9.5264 6.31905 9.7639 6.29292 9.99982 6.31509C10.4712 6.2946 10.9325 6.45553 11.2889 6.76476C11.6452 7.07399 11.8695 7.50803 11.9157 7.97759M9.99982 13.6673V12.8353M9.99982 5.354V6.31192" stroke="#393939" stroke-linecap="round" stroke-linejoin="round"/>
</svg>
