<svg width="20" height="20" viewBox="0 0 20 20" fill="none" xmlns="http://www.w3.org/2000/svg">
<path d="M4.82917 11.9217L3.3525 10.4425L1.875 11.9217M15.1708 8.10583L16.6475 9.58583L18.125 8.10583" stroke="white" stroke-linecap="round" stroke-linejoin="round"/>
<path d="M16.6475 9.58583C16.6475 7.81916 15.9475 6.12666 14.7009 4.87749C14.084 4.25938 13.3513 3.76898 12.5446 3.43438C11.738 3.09977 10.8733 2.92752 10 2.92749C9.15177 2.92682 8.31136 3.09009 7.52504 3.40833C6.64725 3.76027 5.85463 4.29539 5.20007 4.97797C4.54551 5.66056 4.04407 6.4749 3.72921 7.36666M3.35254 10.4417C3.35382 11.9871 3.892 13.4841 4.87504 14.6767C5.85701 15.8678 7.22322 16.6796 8.73884 16.9727C10.2545 17.2657 11.8248 17.0217 13.18 16.2825C14.5352 15.5418 15.5911 14.3536 16.1675 12.9208" stroke="white" stroke-linecap="round" stroke-linejoin="round"/>
<path d="M7.9834 11.6484C8.02677 12.1431 8.26212 12.6011 8.63904 12.9245C9.01597 13.2478 9.50451 13.4108 10.0001 13.3784C11.6267 13.3784 12.0167 12.4425 12.0167 11.6484C12.0167 10.8542 11.3442 10.0125 10.0001 10.0125C8.6559 10.0125 7.9834 9.48086 7.9834 8.39753C8.00206 8.02213 8.13462 7.66133 8.36343 7.36314C8.59224 7.06495 8.90645 6.84354 9.26423 6.72836C9.50173 6.6517 9.75173 6.6242 10.0001 6.64753C10.4963 6.62597 10.9818 6.79536 11.3569 7.12087C11.7321 7.44638 11.9682 7.90326 12.0167 8.39753M10.0001 14.3867V13.5109M10.0001 5.63586V6.6442" stroke="white" stroke-linecap="round" stroke-linejoin="round"/>
</svg>
