<svg width="17" height="16" viewBox="0 0 17 16" fill="none" xmlns="http://www.w3.org/2000/svg">
<g clip-path="url(#clip0_149_4205)">
<path d="M1.25012 0H7.25012C7.66212 0 8.23913 0.239 8.53013 0.53L15.9691 7.969C16.0388 8.03865 16.0941 8.12135 16.1318 8.21238C16.1695 8.3034 16.189 8.40097 16.189 8.4995C16.189 8.59803 16.1695 8.6956 16.1318 8.78662C16.0941 8.87765 16.0388 8.96035 15.9691 9.03L9.53013 15.469C9.46047 15.5387 9.37777 15.594 9.28675 15.6317C9.19572 15.6694 9.09816 15.6888 8.99962 15.6888C8.90109 15.6888 8.80353 15.6694 8.7125 15.6317C8.62148 15.594 8.53877 15.5387 8.46912 15.469L1.03012 8.03C0.738125 7.738 0.500125 7.162 0.500125 6.75V0.75C0.500915 0.551331 0.580187 0.361024 0.720668 0.220543C0.861149 0.0800612 1.05146 0.000789946 1.25012 0ZM5.00012 6C5.19717 5.99993 5.39228 5.96106 5.5743 5.88559C5.75633 5.81012 5.9217 5.69954 6.06099 5.56016C6.20028 5.42078 6.31075 5.25533 6.3861 5.07325C6.46144 4.89118 6.50019 4.69605 6.50012 4.499C6.50006 4.30195 6.46118 4.10685 6.38571 3.92482C6.31025 3.7428 6.19967 3.57742 6.06029 3.43813C5.92091 3.29884 5.75545 3.18837 5.57338 3.11303C5.3913 3.03768 5.19617 2.99893 4.99912 2.999C4.60117 2.99913 4.21956 3.15735 3.93826 3.43884C3.65695 3.72033 3.49899 4.10204 3.49912 4.5C3.49926 4.89796 3.65747 5.27956 3.93896 5.56087C4.22046 5.84217 4.60217 6.00013 5.00012 6Z" fill="#0070BB"/>
</g>
<defs>
<clipPath id="clip0_149_4205">
<rect width="16" height="16" fill="white" transform="matrix(-1 0 0 1 16.5 0)"/>
</clipPath>
</defs>
</svg>
