<svg width="16" height="15" viewBox="0 0 16 15" fill="none" xmlns="http://www.w3.org/2000/svg">
<g clip-path="url(#clip0_107_2439)">
<path d="M1.20285 0H6.82785C7.2141 0 7.75503 0.224062 8.02785 0.496875L15.0019 7.47094C15.0672 7.53623 15.1191 7.61377 15.1544 7.6991C15.1898 7.78444 15.208 7.87591 15.208 7.96828C15.208 8.06065 15.1898 8.15212 15.1544 8.23746C15.1191 8.3228 15.0672 8.40033 15.0019 8.46562L8.96535 14.5022C8.90005 14.5675 8.82252 14.6194 8.73718 14.6547C8.65184 14.6901 8.56038 14.7083 8.468 14.7083C8.37563 14.7083 8.28416 14.6901 8.19882 14.6547C8.11349 14.6194 8.03595 14.5675 7.97066 14.5022L0.996595 7.52812C0.722845 7.25437 0.499721 6.71438 0.499721 6.32812V0.703125C0.500461 0.516873 0.574778 0.33846 0.706479 0.206759C0.838181 0.0750574 1.01659 0.000740575 1.20285 0ZM4.71847 5.625C4.9032 5.62494 5.08612 5.58849 5.25676 5.51774C5.42741 5.44699 5.58245 5.34332 5.71303 5.21265C5.84362 5.08198 5.94718 4.92687 6.01782 4.75618C6.08846 4.58548 6.12478 4.40255 6.12472 4.21781C6.12466 4.03308 6.08821 3.85017 6.01746 3.67952C5.94671 3.50887 5.84304 3.35383 5.71237 3.22325C5.5817 3.09267 5.42659 2.9891 5.2559 2.91846C5.0852 2.84783 4.90227 2.8115 4.71753 2.81156C4.34445 2.81169 3.98669 2.96001 3.72297 3.22391C3.45925 3.48781 3.31116 3.84566 3.31128 4.21875C3.31141 4.59184 3.45973 4.94959 3.72363 5.21331C3.98753 5.47704 4.34539 5.62512 4.71847 5.625Z" fill="#DA0B66"/>
</g>
<defs>
<clipPath id="clip0_107_2439">
<rect width="15" height="15" fill="white" transform="matrix(-1 0 0 1 15.5 0)"/>
</clipPath>
</defs>
</svg>
