<svg width="24" height="24" viewBox="0 0 24 24" fill="none" xmlns="http://www.w3.org/2000/svg">
<path d="M5.4375 1.5C4.79103 1.5 4.17105 1.75681 3.71393 2.21393C3.25681 2.67105 3 3.29103 3 3.9375V20.0625C3 20.709 3.25681 21.329 3.71393 21.7861C4.17105 22.2432 4.79103 22.5 5.4375 22.5H17.8125C18.459 22.5 19.079 22.2432 19.5361 21.7861C19.9932 21.329 20.25 20.709 20.25 20.0625V3.9375C20.25 3.29103 19.9932 2.67105 19.5361 2.21393C19.079 1.75681 18.459 1.5 17.8125 1.5H5.4375ZM7.5 5.25H15.75C15.9489 5.25 16.1397 5.32902 16.2803 5.46967C16.421 5.61032 16.5 5.80109 16.5 6V7.5C16.5 7.69891 16.421 7.88968 16.2803 8.03033C16.1397 8.17098 15.9489 8.25 15.75 8.25H7.5C7.30109 8.25 7.11032 8.17098 6.96967 8.03033C6.82902 7.88968 6.75 7.69891 6.75 7.5V6C6.75 5.80109 6.82902 5.61032 6.96967 5.46967C7.11032 5.32902 7.30109 5.25 7.5 5.25ZM21 6H21.9375C22.0867 6 22.2298 6.05926 22.3352 6.16475C22.4407 6.27024 22.5 6.41332 22.5 6.5625V8.4375C22.5 8.58668 22.4407 8.72976 22.3352 8.83525C22.2298 8.94074 22.0867 9 21.9375 9H21V6ZM21.9375 10.5H21V13.5H21.9375C22.0867 13.5 22.2298 13.4407 22.3352 13.3352C22.4407 13.2298 22.5 13.0867 22.5 12.9375V11.0625C22.5 10.9133 22.4407 10.7702 22.3352 10.6648C22.2298 10.5593 22.0867 10.5 21.9375 10.5ZM21 15H21.9375C22.0867 15 22.2298 15.0593 22.3352 15.1648C22.4407 15.2702 22.5 15.4133 22.5 15.5625V17.4375C22.5 17.5867 22.4407 17.7298 22.3352 17.8352C22.2298 17.9407 22.0867 18 21.9375 18H21V15Z" fill="#252526"/>
</svg>
