<svg width="20" height="21" viewBox="0 0 20 21" fill="none" xmlns="http://www.w3.org/2000/svg">
<g clip-path="url(#clip0_106_1102)">
<path d="M16.0015 13.694C16.0015 14.9613 15.5433 15.9814 14.6267 16.7544C13.7102 17.5195 12.803 17.9777 11.1532 18.1292V20.5799H8.76382V18.1771C6.81922 18.1373 5.48956 17.7945 4.02307 17.1491V13.9931C4.71637 14.3357 5.54932 14.6386 6.52152 14.9016C7.50181 15.1645 7.99852 15.3199 8.76364 15.3678V11.6619L8.33852 11.351C6.76059 10.7293 5.64086 10.0559 4.97931 9.33068C4.32584 8.59751 3.99902 7.69298 3.99902 6.61703C3.99902 5.46139 4.44932 4.51306 5.34992 3.77183C6.25842 3.02271 7.14586 2.56846 8.76364 2.40909V0.580078H11.1531V2.36134C12.9782 2.44104 14.252 2.80771 15.7264 3.46118L14.6027 6.25844C13.3595 5.74838 12.4602 5.43753 11.1531 5.32608V8.85274C12.7071 9.45039 13.435 9.96854 14.0887 10.4068C14.7502 10.8451 15.2323 11.3273 15.5352 11.8534C15.8459 12.3792 16.0015 12.9928 16.0015 13.694M12.4031 13.8735C12.4031 13.5388 12.2676 13.256 11.9966 13.0248C11.7256 12.7936 11.6949 12.5546 11.1531 12.3074V15.2842C12.2369 15.1008 12.4031 14.6305 12.4031 13.8735ZM7.59747 6.61703C7.59747 6.96773 7.71701 7.25866 7.95606 7.48963C8.20321 7.71271 8.22181 7.94388 8.76364 8.18293V5.37381C7.73542 5.52531 7.59747 5.93969 7.59747 6.61703Z" fill="#373737"/>
</g>
<defs>
<clipPath id="clip0_106_1102">
<rect width="20" height="20" fill="white" transform="translate(0 0.580078)"/>
</clipPath>
</defs>
</svg>
