<svg width="232" height="60" viewBox="0 0 232 60" fill="none" xmlns="http://www.w3.org/2000/svg">
<g id="Logo Alternative.svg">
<path id="Vector" d="M201.937 14.0155L197.012 44.8812C196.994 44.9946 197 45.1106 197.032 45.2211C197.063 45.3316 197.118 45.434 197.193 45.521C197.268 45.608 197.361 45.6776 197.466 45.7249C197.571 45.7722 197.685 45.796 197.8 45.7947H203.628C203.834 45.7965 204.034 45.7247 204.191 45.5924C204.348 45.4601 204.452 45.276 204.485 45.0735L209.41 14.2078C209.428 14.0944 209.422 13.9784 209.391 13.8679C209.359 13.7574 209.304 13.655 209.229 13.568C209.154 13.481 209.061 13.4114 208.956 13.3641C208.851 13.3168 208.737 13.293 208.622 13.2943H202.794C202.587 13.2902 202.387 13.3612 202.229 13.4939C202.071 13.6266 201.968 13.812 201.937 14.0155ZM195.714 23.0229H190.184C189.978 23.0209 189.779 23.0924 189.622 23.2245C189.465 23.3566 189.361 23.5406 189.328 23.7429L189.145 24.8792C189.145 24.8792 184.85 20.2335 177.246 23.3731C172.883 25.1706 170.789 28.8845 169.898 31.6053C169.898 31.6053 167.07 39.8743 173.466 44.4257C173.466 44.4257 179.398 48.8033 186.076 44.1563L185.961 44.8812C185.934 45.0515 185.964 45.2259 186.046 45.3776C186.128 45.5293 186.258 45.65 186.415 45.7212C186.52 45.7702 186.634 45.7947 186.749 45.7947H192.283C192.489 45.7988 192.69 45.7278 192.847 45.5951C193.005 45.4624 193.109 45.277 193.14 45.0735L196.505 23.9363C196.524 23.8231 196.517 23.7071 196.486 23.5968C196.454 23.4865 196.398 23.3845 196.322 23.2984C196.247 23.2106 196.154 23.1403 196.049 23.0925C195.944 23.0447 195.829 23.0217 195.714 23.0229ZM187.576 34.7045C187.361 36.1813 186.612 37.5289 185.471 38.4943C184.326 39.4632 182.867 39.9864 181.365 39.9674C180.776 39.9742 180.19 39.8891 179.627 39.7151C177.24 38.9559 175.877 36.6857 176.269 34.2245C176.486 32.7484 177.236 31.4019 178.376 30.4371C179.521 29.4677 180.978 28.9429 182.48 28.9592C183.069 28.9531 183.656 29.039 184.218 29.2139C186.62 29.9682 187.977 32.242 187.583 34.7057H187.576V34.7045ZM158.048 35.2886C161.047 35.2886 163.947 34.2257 166.225 32.2935C168.499 30.3677 170.004 27.6921 170.468 24.7531C171.436 18.6392 166.613 13.3029 159.776 13.3029H148.762C148.556 13.3009 148.357 13.3726 148.2 13.505C148.043 13.6374 147.939 13.8216 147.906 14.0241L142.98 44.8898C142.954 45.0601 142.984 45.2344 143.066 45.3861C143.148 45.5378 143.277 45.6585 143.435 45.7298C143.54 45.7788 143.653 45.8033 143.768 45.8033H149.6C149.806 45.8052 150.005 45.7335 150.162 45.6011C150.319 45.4688 150.423 45.2846 150.456 45.082L151.902 36.0184C151.932 35.8146 152.036 35.6289 152.194 35.496C152.351 35.363 152.552 35.2919 152.759 35.2959L158.048 35.2886ZM162.926 24.4751C162.566 26.7355 160.801 28.3996 157.424 28.3996H153.107L154.418 20.1796H158.658C162.149 20.1857 163.286 22.2245 162.926 24.4812V24.4751Z" fill="#0070E0"/>
<path id="Vector_2" d="M136.336 23.5469L129.666 34.6959L126.28 23.629C126.227 23.4523 126.118 23.2977 125.969 23.1884C125.821 23.079 125.64 23.0209 125.455 23.0228H119.436C119.28 23.0207 119.129 23.0749 119.01 23.1752C118.891 23.2756 118.813 23.4154 118.789 23.569C118.774 23.6708 118.785 23.7746 118.82 23.8714L124.886 42.513L119.399 51.2975C119.352 51.3699 119.321 51.4509 119.307 51.5357C119.293 51.6205 119.296 51.7073 119.317 51.7907C119.338 51.8742 119.375 51.9525 119.427 52.021C119.479 52.0895 119.545 52.1466 119.62 52.189C119.72 52.2465 119.834 52.2761 119.95 52.2747H126.434C126.619 52.2753 126.801 52.2283 126.962 52.1382C127.124 52.0481 127.259 51.918 127.356 51.7604L144.3 24.0049C144.361 23.9082 144.395 23.7967 144.397 23.6823C144.4 23.5679 144.371 23.455 144.313 23.3559C144.256 23.2565 144.173 23.1741 144.073 23.1175C143.973 23.0609 143.86 23.032 143.745 23.0339H137.264C137.078 23.0322 136.895 23.0785 136.732 23.1684C136.57 23.2583 136.433 23.3887 136.336 23.5469ZM116.023 23.0228H110.489C110.283 23.0209 110.083 23.0927 109.926 23.2253C109.768 23.3579 109.664 23.5424 109.632 23.7453L109.453 24.8804C109.453 24.8804 105.154 20.2347 97.5495 23.3743C93.1882 25.1718 91.0929 28.8857 90.2054 31.6065C90.2054 31.6065 87.3748 39.8755 93.77 44.4269C93.77 44.4269 99.7025 48.8045 106.381 44.1575L106.266 44.8824C106.239 45.0527 106.269 45.2273 106.351 45.379C106.433 45.5308 106.563 45.6515 106.72 45.7224C106.824 45.7714 106.939 45.7959 107.054 45.7959H112.588C112.793 45.7974 112.992 45.7255 113.149 45.5932C113.306 45.4609 113.41 45.277 113.443 45.0747L116.81 23.9375C116.838 23.767 116.808 23.5922 116.726 23.4402C116.644 23.2881 116.514 23.1673 116.356 23.0963C116.251 23.0482 116.139 23.0232 116.023 23.0228ZM107.885 34.7069C107.667 36.1819 106.918 37.5274 105.779 38.4918C104.634 39.4607 103.177 39.985 101.675 39.9685C101.087 39.9751 100.501 39.89 99.9394 39.7163C97.5532 38.9571 96.1919 36.6869 96.5835 34.2245C96.8016 32.7452 97.5537 31.3962 98.6984 30.431C99.8476 29.4616 101.309 28.9393 102.814 28.9604C103.403 28.9543 103.991 29.04 104.554 29.2151C106.931 29.9694 108.285 32.242 107.892 34.7069H107.885ZM78.3576 35.2898C81.3513 35.2882 84.247 34.2254 86.5278 32.291C88.7992 30.3653 90.3027 27.6906 90.7651 24.753C91.7349 18.6404 86.9108 13.3041 80.0761 13.3041H69.0605C68.855 13.302 68.6556 13.3735 68.4984 13.5056C68.3412 13.6377 68.2366 13.8217 68.2038 14.0241L63.2938 44.8812C63.2663 45.0517 63.296 45.2265 63.378 45.3785C63.4601 45.5306 63.5901 45.6514 63.7479 45.7224C63.8523 45.7702 63.9664 45.7959 64.0818 45.7959H69.91C70.1159 45.7979 70.3156 45.726 70.4729 45.5934C70.6301 45.4608 70.7344 45.2763 70.7668 45.0734L72.2103 36.0098C72.241 35.8063 72.3448 35.6209 72.5025 35.4881C72.6602 35.3554 72.8608 35.2845 73.0671 35.2885L78.3576 35.2898ZM83.2357 24.4751C82.876 26.7355 81.1121 28.3996 77.7353 28.3996H73.4182L74.7267 20.1796H78.9664C82.4587 20.1857 83.5941 22.2257 83.2357 24.4812V24.4751Z" fill="#003087"/>
<path id="Vector_3" d="M40.6796 14.8898C40.8109 8.07427 35.1755 2.8457 27.4263 2.8457H11.3977C11.0242 2.84553 10.6629 2.97841 10.3788 3.22042C10.0948 3.46243 9.90678 3.79765 9.84858 4.1657L3.42632 44.1979C3.39758 44.3794 3.4086 44.5648 3.45862 44.7416C3.50863 44.9183 3.59645 45.0822 3.71602 45.2218C3.8356 45.3615 3.9841 45.4736 4.15129 45.5505C4.31848 45.6274 4.50039 45.6673 4.6845 45.6673H14.1804L12.6964 54.9367C12.6676 55.1181 12.6787 55.3036 12.7287 55.4803C12.7787 55.6571 12.8665 55.8209 12.9861 55.9606C13.1056 56.1002 13.2541 56.2124 13.4213 56.2893C13.5885 56.3662 13.7704 56.4061 13.9546 56.4061H21.6902C22.0634 56.4061 22.396 56.2726 22.6808 56.0314C22.9631 55.789 23.0098 55.4547 23.0687 55.0861L25.3396 41.7588C25.3973 41.3914 25.5851 40.9139 25.8686 40.6714C26.1522 40.429 26.4001 40.2967 26.7745 40.2967H31.5077C39.0974 40.2967 45.5356 34.9151 46.7127 27.431C47.5462 22.1192 45.2631 17.2861 40.6796 14.8898Z" fill="#001C64"/>
<path id="Vector_4" d="M16.2352 30.9037L13.8698 45.8645L12.3846 55.249C12.356 55.4304 12.3672 55.6158 12.4174 55.7925C12.4675 55.9692 12.5555 56.1329 12.6752 56.2725C12.7949 56.412 12.9435 56.524 13.1107 56.6008C13.2779 56.6775 13.4599 56.7172 13.644 56.7171H21.8314C22.2045 56.717 22.5654 56.5839 22.8489 56.3419C23.1325 56.0999 23.3201 55.7649 23.378 55.3971L25.536 41.7575C25.5941 41.3897 25.782 41.0546 26.0657 40.8126C26.3495 40.5707 26.7105 40.4376 27.0838 40.4375H31.903C39.4926 40.4375 45.9308 34.9151 47.1092 27.431C47.9439 22.1192 45.263 17.2849 40.6796 14.8885C40.6673 15.4543 40.6182 16.0188 40.531 16.5783C39.3539 24.06 32.9132 29.5837 25.326 29.5837H17.7831C17.4097 29.5841 17.0486 29.7173 16.7649 29.9595C16.4812 30.2017 16.2934 30.5357 16.2352 30.9037Z" fill="#0070E0"/>
<path id="Vector_5" d="M13.8686 45.8645H4.34327C4.1592 45.8645 3.97732 45.8246 3.81018 45.7477C3.64304 45.6708 3.49461 45.5586 3.37512 45.4189C3.25564 45.2793 3.16794 45.1154 3.11808 44.9386C3.06822 44.7619 3.05739 44.5764 3.08632 44.3951L9.50858 3.76897C9.56675 3.40113 9.75462 3.06607 10.0384 2.82409C10.3221 2.58211 10.6831 2.44909 11.0564 2.44897H27.4263C35.1755 2.44897 40.811 8.07428 40.6796 14.8886C38.7512 13.8796 36.4853 13.3029 34.0033 13.3029H20.356C19.9824 13.3027 19.6211 13.4356 19.3371 13.6776C19.0531 13.9196 18.8651 14.2548 18.8069 14.6229L16.2365 30.9037L13.8674 45.8645H13.8686Z" fill="#003087"/>
</g>
</svg>
