<svg width="276" height="60" viewBox="0 0 276 60" fill="none" xmlns="http://www.w3.org/2000/svg">
<g clip-path="url(#clip0_23_206)">
<path d="M127.598 22.2375L109.26 50.3309C106.56 54.4442 104.104 57.1007 101.862 58.2575C99.6192 59.4144 97.0912 60 94.2776 60C92.8637 60 91.4354 59.8286 89.9786 59.5144L91.3212 52.0162C93.5778 52.2733 95.2774 52.4161 96.4057 52.4161C99.2193 52.4161 100.762 51.6306 101.047 50.0738C101.105 49.7167 101.105 49.1311 101.047 48.3028L99.0336 22.2518H110.145L110.531 33.392C110.617 35.2916 110.631 36.477 110.588 36.9769C110.831 36.6341 111.131 36.1628 111.474 35.5629C111.745 35.0488 112.073 34.5203 112.459 33.9633L120.1 22.2375H127.627H127.598Z" fill="white"/>
<path d="M135.453 50.4308H123.956L137.31 12.8683H148.807L135.453 50.4308Z" fill="white"/>
<path d="M157.862 50.8307C153.978 50.8307 150.907 49.6882 148.679 47.3887C146.437 45.0893 145.68 41.9614 146.379 37.9767C147.222 33.1778 149.45 29.2502 153.064 26.1652C156.677 23.0802 160.819 21.552 165.489 21.552C169.76 21.552 172.945 22.766 175.03 25.1797C177.115 27.5934 177.843 30.5784 177.229 34.1062C176.301 39.3763 173.959 43.4896 170.202 46.4175C166.446 49.3597 162.333 50.8307 157.862 50.8307ZM159.533 44.0324C161.476 44.0324 163.047 42.6184 164.232 39.8048C165.432 36.9769 166.189 34.6203 166.532 32.7065C167.046 29.8072 166.218 28.3647 164.075 28.3647C162.161 28.3647 160.59 29.8072 159.348 32.7065C158.105 35.6058 157.32 37.9624 157.005 39.7762C156.506 42.6184 157.348 44.0324 159.533 44.0324Z" fill="white"/>
<path d="M205.008 50.0452H194.082C194.125 49.5311 194.168 49.1026 194.225 48.7741C194.397 47.8315 194.697 46.6603 195.168 45.2606C192.326 48.8455 188.926 50.6308 184.985 50.6308C182.314 50.6308 180.286 49.8738 178.9 48.3599C177.515 46.846 177.029 44.9464 177.429 42.6613C177.729 40.9474 178.458 39.3763 179.6 37.9624C180.743 36.5484 182.2 35.4058 183.985 34.5632C185.77 33.7205 187.541 33.1635 189.298 32.8922C191.055 32.6208 194.468 32.2637 199.524 31.8067C199.81 31.1354 199.981 30.6213 200.052 30.2499C200.324 28.7217 199.367 27.9648 197.196 27.9648C195.025 27.9648 193.297 28.9788 191.926 31.0212L183.171 29.193C186.384 24.0371 191.926 21.452 199.767 21.452C203.737 21.452 206.737 22.1376 208.765 23.4944C210.793 24.8655 211.578 26.8793 211.107 29.5501C210.893 30.7355 209.493 34.9631 206.879 42.2328C205.908 44.9321 205.337 46.7174 205.18 47.6029C205.051 48.3171 205.008 49.1312 205.023 50.0452H205.008ZM197.639 36.8484C192.397 37.2197 189.526 38.8336 189.026 41.7043C188.755 43.2611 189.441 44.0324 191.112 44.0324C192.183 44.0324 193.325 43.5753 194.554 42.6327C195.782 41.7043 196.81 39.7762 197.639 36.8484Z" fill="white"/>
<path d="M250.369 12.4827L237.443 50.0452H227.446L228.803 45.9319C225.96 49.2026 222.947 50.845 219.733 50.845C217.234 50.845 215.263 49.8595 213.806 47.8886C212.349 45.9176 211.95 43.0897 212.592 39.3906C213.392 34.8203 215.392 30.6784 218.562 26.9936C221.733 23.3087 225.289 21.4663 229.231 21.4663C232.602 21.4663 234.644 22.766 235.358 25.3797L239.786 12.497H250.383L250.369 12.4827ZM233.045 32.0352C233.144 31.7353 233.23 31.4211 233.287 31.0926C233.43 30.3071 233.259 29.6358 232.787 29.0788C232.316 28.5218 231.688 28.2361 230.888 28.2361C228.974 28.2361 227.346 29.6929 225.989 32.6065C224.632 35.5201 223.775 37.9624 223.433 39.9048C222.99 42.447 223.761 43.7181 225.746 43.7181C227.731 43.7181 229.245 42.4613 230.345 39.9333L233.016 32.0352H233.045Z" fill="white"/>
<path d="M268.665 43.1469L266.294 50.0452H241.343L243.485 43.8324L260.081 28.9502H249.555L251.869 22.2518H275.834L273.978 27.5791L256.61 43.1611H268.665V43.1469Z" fill="white"/>
<path d="M89.1502 50.0452H78.2243C78.2528 49.5311 78.3099 49.1026 78.3671 48.7741C78.5385 47.8315 78.8527 46.6603 79.3097 45.2606C76.4675 48.8455 73.0683 50.6308 69.1264 50.6308C66.4556 50.6308 64.4275 49.8738 63.0422 48.3599C61.6568 46.846 61.1712 44.9464 61.5711 42.6613C61.871 40.9474 62.5994 39.3763 63.742 37.9624C64.8846 36.5484 66.3414 35.4058 68.1267 34.5632C69.912 33.7205 71.683 33.1635 73.4397 32.8922C75.1964 32.6208 78.6099 32.2637 83.6658 31.8067C83.9515 31.1354 84.1229 30.6213 84.1943 30.2499C84.4656 28.7217 83.5087 27.9648 81.3378 27.9648C79.1669 27.9648 77.4387 28.9788 76.0676 31.0212L67.3126 29.193C70.5261 24.0371 76.0676 21.452 83.9086 21.452C87.8791 21.452 90.8784 22.1376 92.9065 23.4944C94.9346 24.8655 95.7201 26.8793 95.2488 29.5501C95.0345 30.7355 93.6349 34.9631 91.0212 42.2328C90.05 44.9321 89.4787 46.7174 89.3359 47.6029C89.2074 48.3171 89.1645 49.1312 89.1788 50.0452H89.1502ZM81.7806 36.8484C76.5389 37.2197 73.6682 38.8336 73.1683 41.7043C72.897 43.2611 73.5825 44.0324 75.2535 44.0324C76.3247 44.0324 77.4673 43.5753 78.6956 42.6327C79.9238 41.7043 80.9522 39.7762 81.7806 36.8484Z" fill="white"/>
<path d="M65.6986 18.4813C65.1416 16.8817 64.2418 15.6106 62.985 14.6536C61.7281 13.6967 60.457 13.0969 59.1716 12.8398C57.8862 12.597 55.7724 12.4684 52.8588 12.4684H40.4189H27.5791C27.5077 17.0816 31.5924 20.6379 37.3196 20.6379C37.4196 20.6379 37.5053 20.6379 37.6053 20.6379V20.6665H48.5455H50.845C54.1728 20.6665 55.6153 21.8662 55.2011 24.2371C54.7298 26.9079 52.5017 28.2504 48.5455 28.2504H48.0599H34.9773L27.4791 50.0309H38.4337L43.1183 36.4199H50.4594C54.7441 36.4199 58.2575 35.1773 60.9997 32.6779C63.7419 30.1785 65.4272 27.1649 66.0414 23.6229C66.3699 21.7805 66.2413 20.0666 65.6843 18.4813H65.6986Z" fill="white"/>
<path d="M17.8529 7.58391H56.458C56.458 7.58391 56.458 7.58391 56.458 7.59819C63.1992 8.36944 68.7836 11.7401 71.4116 16.3247C69.6406 7.9124 61.0712 1.29969 50.2023 0.0285646C50.2023 0.0285646 50.2023 0.0142823 50.2023 0H0C1.6139 8.55511 10.2833 15.3106 21.2806 16.6103H24.4228C20.9522 14.3537 18.5527 11.1688 17.8529 7.58391Z" fill="white"/>
</g>
<defs>
<clipPath id="clip0_23_206">
<rect width="275.834" height="60" fill="white"/>
</clipPath>
</defs>
</svg>
