<svg width="184" height="40" viewBox="0 0 184 40" fill="none" xmlns="http://www.w3.org/2000/svg">
<g clip-path="url(#clip0_2002_8559)">
<path d="M85.1168 14.825L72.8838 33.5539C71.0831 36.2961 69.4444 38.0671 67.9487 38.8384C66.4529 39.6096 64.7666 40 62.8897 40C61.9465 40 60.9938 39.8857 60.022 39.6763L60.9175 34.6775C62.4228 34.8488 63.5566 34.9441 64.3092 34.9441C66.1861 34.9441 67.2151 34.4204 67.4056 33.3825C67.4437 33.1445 67.4437 32.7541 67.4056 32.2019L66.0623 14.8346H73.4745L73.7317 22.2614C73.7889 23.5277 73.7984 24.318 73.7698 24.6513C73.9318 24.4228 74.1318 24.1085 74.3605 23.7086C74.5415 23.3659 74.7606 23.0136 75.0179 22.6422L80.115 14.825H85.1358H85.1168Z" fill="#2B5CFD"/>
<path d="M90.3565 33.6206H82.687L91.595 8.57891H99.2644L90.3565 33.6206Z" fill="#2B5CFD"/>
<path d="M105.305 33.8872C102.713 33.8872 100.665 33.1254 99.1789 31.5925C97.6831 30.0595 97.1781 27.9743 97.645 25.3178C98.2071 22.1185 99.6933 19.5001 102.104 17.4435C104.514 15.3868 107.277 14.368 110.392 14.368C113.241 14.368 115.366 15.1773 116.757 16.7865C118.148 18.3956 118.634 20.3856 118.224 22.7374C117.605 26.2509 116.042 28.9931 113.536 30.945C111.031 32.9065 108.287 33.8872 105.305 33.8872ZM106.42 29.3549C107.715 29.3549 108.763 28.4123 109.554 26.5365C110.354 24.6513 110.859 23.0802 111.088 21.8043C111.431 19.8715 110.878 18.9098 109.449 18.9098C108.173 18.9098 107.125 19.8715 106.296 21.8043C105.467 23.7372 104.943 25.3083 104.733 26.5175C104.4 28.4123 104.962 29.3549 106.42 29.3549Z" fill="#2B5CFD"/>
<path d="M136.754 33.3635H129.466C129.495 33.0207 129.523 32.7351 129.561 32.5161C129.676 31.8876 129.876 31.1069 130.19 30.1738C128.294 32.5637 126.027 33.7539 123.397 33.7539C121.616 33.7539 120.263 33.2492 119.339 32.2399C118.414 31.2307 118.091 29.9643 118.357 28.4408C118.557 27.2983 119.043 26.2509 119.805 25.3083C120.568 24.3656 121.539 23.6039 122.73 23.0421C123.921 22.4804 125.103 22.109 126.274 21.9281C127.446 21.7472 129.723 21.5092 133.096 21.2045C133.287 20.757 133.401 20.4142 133.449 20.1666C133.63 19.1478 132.991 18.6432 131.543 18.6432C130.095 18.6432 128.942 19.3192 128.028 20.6808L122.187 19.462C124.331 16.0248 128.027 14.3014 133.258 14.3014C135.907 14.3014 137.907 14.7584 139.26 15.6629C140.613 16.577 141.137 17.9195 140.823 19.7001C140.68 20.4904 139.746 23.3087 138.003 28.1552C137.355 29.9548 136.974 31.145 136.869 31.7353C136.783 32.2114 136.754 32.7541 136.764 33.3635H136.754ZM131.838 24.5656C128.342 24.8131 126.427 25.8891 126.093 27.8029C125.912 28.8408 126.37 29.3549 127.484 29.3549C128.199 29.3549 128.961 29.0502 129.781 28.4218C130.6 27.8029 131.286 26.5175 131.838 24.5656Z" fill="#2B5CFD"/>
<path d="M167.013 8.32183L158.391 33.3635H151.722L152.627 30.6213C150.731 32.8017 148.72 33.8967 146.577 33.8967C144.91 33.8967 143.595 33.2397 142.623 31.9257C141.651 30.6118 141.384 28.7265 141.813 26.2604C142.347 23.2135 143.681 20.4523 145.796 17.9957C147.911 15.5392 150.283 14.3109 152.912 14.3109C155.161 14.3109 156.523 15.1773 157 16.9198L159.953 8.33135H167.022L167.013 8.32183ZM155.456 21.3568C155.523 21.1569 155.58 20.9474 155.618 20.7284C155.713 20.2047 155.599 19.7572 155.285 19.3859C154.97 19.0145 154.551 18.8241 154.018 18.8241C152.741 18.8241 151.655 19.7953 150.75 21.7377C149.845 23.6801 149.273 25.3083 149.044 26.6032C148.749 28.298 149.263 29.1454 150.588 29.1454C151.912 29.1454 152.922 28.3075 153.656 26.6222L155.437 21.3568H155.456Z" fill="#2B5CFD"/>
<path d="M179.217 28.7646L177.636 33.3635H160.992L162.421 29.2216L173.491 19.3002H166.47L168.013 14.8346H184L182.761 18.3861L171.176 28.7741H179.217V28.7646Z" fill="#2B5CFD"/>
<path d="M59.4693 33.3635H52.181C52.2 33.0207 52.2381 32.7351 52.2762 32.5161C52.3906 31.8876 52.6002 31.1069 52.905 30.1738C51.0091 32.5637 48.7416 33.7539 46.1121 33.7539C44.3305 33.7539 42.9776 33.2492 42.0535 32.2399C41.1293 31.2307 40.8054 29.9643 41.0722 28.4408C41.2723 27.2983 41.7581 26.2509 42.5203 25.3083C43.2825 24.3656 44.2543 23.6039 45.4452 23.0421C46.6361 22.4804 47.8175 22.109 48.9893 21.9281C50.1612 21.7472 52.4382 21.5092 55.8109 21.2045C56.0014 20.757 56.1157 20.4142 56.1634 20.1666C56.3444 19.1478 55.7061 18.6432 54.2579 18.6432C52.8098 18.6432 51.657 19.3192 50.7423 20.6808L44.9021 19.462C47.0458 16.0248 50.7423 14.3014 55.9728 14.3014C58.6214 14.3014 60.6221 14.7584 61.975 15.6629C63.3279 16.577 63.8519 17.9195 63.5375 19.7001C63.3946 20.4904 62.4609 23.3087 60.7174 28.1552C60.0695 29.9548 59.6884 31.145 59.5932 31.7353C59.5074 32.2114 59.4788 32.7541 59.4884 33.3635H59.4693ZM54.5533 24.5656C51.0567 24.8131 49.1418 25.8891 48.8083 27.8029C48.6273 28.8408 49.0846 29.3549 50.1993 29.3549C50.9138 29.3549 51.676 29.0502 52.4954 28.4218C53.3147 27.8029 54.0007 26.5175 54.5533 24.5656Z" fill="#2B5CFD"/>
<path d="M43.8255 12.3209C43.454 11.2545 42.8537 10.407 42.0153 9.7691C41.1769 9.13116 40.329 8.73125 39.4716 8.55987C38.6141 8.398 37.2041 8.31231 35.2605 8.31231H26.9623H18.3973C18.3496 11.3878 21.0744 13.7586 24.8948 13.7586C24.9615 13.7586 25.0187 13.7586 25.0854 13.7586V13.7777H32.3833H33.9172C36.137 13.7777 37.0993 14.5775 36.823 16.1581C36.5086 17.9386 35.0223 18.8336 32.3833 18.8336H32.0594H23.3324L18.3306 33.354H25.638L28.7629 24.2799H33.6599C36.5181 24.2799 38.8618 23.4516 40.691 21.7853C42.5203 20.119 43.6445 18.11 44.0542 15.7486C44.2733 14.5204 44.1876 13.3778 43.816 12.3209H43.8255Z" fill="#2B5CFD"/>
<path d="M11.9091 5.05594H37.6613C37.6613 5.05594 37.6613 5.05594 37.6613 5.06546C42.1581 5.57962 45.8833 7.82671 47.6363 10.8831C46.4549 5.27494 40.7386 0.86646 33.4883 0.0190431C33.4883 0.0190431 33.4883 0.00952154 33.4883 0H0C1.07658 5.7034 6.85963 10.2071 14.1956 11.0736H16.2916C13.9765 9.56915 12.3759 7.44585 11.9091 5.05594Z" fill="#2B5CFD"/>
</g>
<defs>
<clipPath id="clip0_2002_8559">
<rect width="184" height="40" fill="white"/>
</clipPath>
</defs>
</svg>
